HIERARCHY
ROOT Hips
{
	OFFSET 0.000000 0.000000 0.000000
	CHANNELS 6 Xposition Yposition Zposition Zrotation Yrotation Xrotation 
	JOINT LHipJoint
	{
		OFFSET 0.000000 0.000000 0.000000
		CHANNELS 3 Zrotation Yrotation Xrotation
		JOINT LeftUpLeg
		{
			OFFSET 1.363060 -1.794630 0.839290
			CHANNELS 3 Zrotation Yrotation Xrotation
			JOINT LeftLeg
			{
				OFFSET 2.448110 -6.726130 0.000000
				CHANNELS 3 Zrotation Yrotation Xrotation
				JOINT LeftFoot
				{
					OFFSET 2.562200 -7.039590 0.000000
					CHANNELS 3 Zrotation Yrotation Xrotation
					JOINT LeftToeBase
					{
						OFFSET 0.157640 -0.433110 2.322550
						CHANNELS 3 Zrotation Yrotation Xrotation
						End Site
						{
							OFFSET 0.000000 0.000000 0.000000
						}
					}
				}
			}
		}
	}
	JOINT RHipJoint
	{
		OFFSET 0.000000 0.000000 0.000000
		CHANNELS 3 Zrotation Yrotation Xrotation
		JOINT RightUpLeg
		{
			OFFSET -1.305520 -1.794630 0.839290
			CHANNELS 3 Zrotation Yrotation Xrotation
			JOINT RightLeg
			{
				OFFSET -2.542530 -6.985550 0.000000
				CHANNELS 3 Zrotation Yrotation Xrotation
				JOINT RightFoot
				{
					OFFSET -2.568260 -7.056230 0.000000
					CHANNELS 3 Zrotation Yrotation Xrotation
					JOINT RightToeBase
					{
						OFFSET -0.164730 -0.452590 2.363150
						CHANNELS 3 Zrotation Yrotation Xrotation
						End Site
						{
							OFFSET 0.000000 0.000000 0.000000
						}
					}
				}
			}
		}
	}
	JOINT LowerBack
	{
		OFFSET 0.000000 0.000000 0.000000
		CHANNELS 3 Zrotation Yrotation Xrotation
		JOINT Spine
		{
			OFFSET 0.028270 2.035590 -0.193380
			CHANNELS 3 Zrotation Yrotation Xrotation
			JOINT Spine1
			{
				OFFSET 0.056720 2.048850 -0.042750
				CHANNELS 3 Zrotation Yrotation Xrotation
				JOINT Neck
				{
					OFFSET 0.000000 0.000000 0.000000
					CHANNELS 3 Zrotation Yrotation Xrotation
					JOINT Neck1
					{
						OFFSET -0.054170 1.746240 0.172020
						CHANNELS 3 Zrotation Yrotation Xrotation
						JOINT Head
						{
							OFFSET 0.104070 1.761360 -0.123970
							CHANNELS 3 Zrotation Yrotation Xrotation
							End Site
							{
								OFFSET 0.000000 0.000000 0.000000
							}
						}
					}
				}
				JOINT LeftShoulder
				{
					OFFSET 0.000000 0.000000 0.000000
					CHANNELS 3 Zrotation Yrotation Xrotation
					JOINT LeftArm
					{
						OFFSET 3.362410 1.200890 -0.311210
						CHANNELS 3 Zrotation Yrotation Xrotation
						JOINT LeftForeArm
						{
							OFFSET 4.983000 -0.000000 -0.000000
							CHANNELS 3 Zrotation Yrotation Xrotation
							JOINT LeftHand
							{
								OFFSET 3.483560 -0.000000 -0.000000
								CHANNELS 3 Zrotation Yrotation Xrotation
								JOINT LeftFingerBase
								{
									OFFSET 0.000000 0.000000 0.000000
									CHANNELS 3 Zrotation Yrotation Xrotation
									JOINT LeftHandIndex1
									{
										OFFSET 0.715260 -0.000000 -0.000000
										CHANNELS 3 Zrotation Yrotation Xrotation
										End Site
										{
											OFFSET 0.000000 0.000000 0.000000
										}
									}
								}
								JOINT LThumb
								{
									OFFSET 0.000000 0.000000 0.000000
									CHANNELS 3 Zrotation Yrotation Xrotation
									End Site
									{
										OFFSET 0.000000 0.000000 0.000000
									}
								}
							}
						}
					}
				}
				JOINT RightShoulder
				{
					OFFSET 0.000000 0.000000 0.000000
					CHANNELS 3 Zrotation Yrotation Xrotation
					JOINT RightArm
					{
						OFFSET -3.136600 1.374050 -0.404650
						CHANNELS 3 Zrotation Yrotation Xrotation
						JOINT RightForeArm
						{
							OFFSET -5.241900 -0.000000 -0.000000
							CHANNELS 3 Zrotation Yrotation Xrotation
							JOINT RightHand
							{
								OFFSET -3.444170 -0.000000 -0.000000
								CHANNELS 3 Zrotation Yrotation Xrotation
								JOINT RightFingerBase
								{
									OFFSET 0.000000 0.000000 0.000000
									CHANNELS 3 Zrotation Yrotation Xrotation
									JOINT RightHandIndex1
									{
										OFFSET -0.622530 -0.000000 -0.000000
										CHANNELS 3 Zrotation Yrotation Xrotation
										End Site
										{
											OFFSET 0.000000 0.000000 0.000000
										}
									}
								}
								JOINT RThumb
								{
									OFFSET 0.000000 0.000000 0.000000
									CHANNELS 3 Zrotation Yrotation Xrotation
									End Site
									{
										OFFSET 0.000000 0.000000 0.000000
									}
								}
							}
						}
					}
				}
			}
		}
	}
}
MOTION
Frames: 7
Frame Time: 0.008333
-0.517839 17.843747 -7.460984 -1.244039 -7.804834 21.831730 -3.918343 -6.046225 -6.444607 -12.083222 4.333170 -45.122742 -2.747295 3.336077 6.992279 1.147977 1.121780 11.370547 0.009100 0.617200 1.696100 3.670479 2.223732 0.745514 16.494273 -5.656326 -13.755364 0.125804 -7.639319 21.978357 -4.553555 20.025784 -2.603410 -0.055700 1.522800 -4.188700 2.202199 3.614324 -9.555880 0.712387 3.593597 -8.536345 -0.520935 2.437754 -0.313447 -1.264591 -0.523992 -7.578425 1.972865 -0.753059 9.315625 -1.097000 -0.223100 2.609200 13.115367 8.391200 0.837523 -102.426971 29.996930 -4.521622 2.755411 -13.153385 -0.149588 -1.332805 -0.080769 32.851260 10.393377 -17.431106 -3.312200 -7.125000 0.000000 0.000000 -10.859500 13.314700 8.218800 -13.004446 -7.126359 -1.261197 91.740088 15.151110 38.030213 -41.469376 53.781278 -20.397112 0.521534 -0.686291 -21.172552 -19.268789 -33.762900 10.875200 7.125000 0.000000 0.000000 15.933000 -63.686400 -7.311800
-0.517839 17.820052 -7.321387 -1.188242 -8.257705 21.873601 -3.965154 -6.019247 -6.439279 -12.105139 4.321851 -44.948605 -2.789867 2.954785 5.968229 1.109756 1.186040 10.839185 0.013493 0.742673 2.041004 3.674811 2.177351 0.786452 16.140978 -5.343520 -13.268694 0.128040 -7.618492 21.963812 -4.533305 19.953410 -2.414612 -0.129508 2.239085 -6.170081 1.963307 3.744611 -9.548503 0.651019 3.802135 -8.546052 -0.492708 2.542185 -0.338653 -1.278380 -0.564399 -7.767881 1.997760 -0.800356 9.439193 -1.088565 -0.244305 2.734028 13.087776 8.394631 0.821944 -102.331746 30.405939 -5.043388 2.689019 -13.007270 -0.124713 -1.346603 -0.088301 33.225799 10.732735 -17.462501 -3.414886 -7.125000 0.000000 0.000000 -10.632981 13.279788 8.049043 -13.009818 -7.116318 -1.279942 91.641901 15.412436 38.008312 -41.913073 53.994154 -20.722563 0.528746 -0.680116 -21.012166 -19.428592 -33.540029 10.911049 7.125000 0.000000 0.000000 15.550841 -63.517990 -7.072043
-0.517125 17.797524 -7.180718 -1.133107 -8.661516 21.919660 -4.005001 -5.994029 -6.439456 -12.108802 4.264824 -44.793085 -2.825698 2.623650 5.073744 1.065233 1.301581 10.483591 0.015759 0.569017 1.563849 3.677637 2.130194 0.830820 15.803229 -5.065739 -12.788898 0.134740 -7.587795 21.925954 -4.505745 19.876005 -2.165767 -0.212887 2.939003 -8.111302 1.742487 3.860997 -9.554969 0.591613 3.989800 -8.555649 -0.480536 2.635380 -0.366045 -1.278901 -0.592197 -7.901137 2.029610 -0.835616 9.520252 -1.077265 -0.259574 2.819521 13.061421 8.397163 0.809763 -102.235393 30.796083 -5.612348 2.619126 -12.853792 -0.103820 -1.356597 -0.091529 33.583650 10.953383 -17.439518 -3.472678 -7.125000 0.000000 0.000000 -10.485752 13.301641 7.928623 -13.015925 -7.108749 -1.294953 91.542669 15.634295 37.997283 -42.373216 54.215007 -21.059361 0.536630 -0.674049 -20.841117 -19.578752 -33.317616 10.941203 7.125000 0.000000 0.000000 15.180896 -63.346921 -6.838530
-0.514685 17.777811 -7.037462 -1.079569 -8.946861 21.975831 -4.028033 -5.973061 -6.452925 -12.068392 4.097430 -44.682518 -2.845251 2.413624 4.492111 1.005490 1.540945 10.552409 0.012889 -0.326924 -0.898277 3.676824 2.081162 0.883469 15.503018 -4.872528 -12.325700 0.152215 -7.533264 21.831808 -4.460530 19.786455 -1.771934 -0.319381 3.599405 -9.955553 1.565302 3.943815 -9.594857 0.536943 4.127062 -8.564982 -0.507134 2.701442 -0.398714 -1.247389 -0.589552 -7.898691 2.078252 -0.841813 9.498669 -1.059047 -0.260512 2.810031 13.038048 8.397521 0.805787 -102.136319 31.140677 -6.295265 2.540777 -12.682536 -0.092544 -1.357405 -0.084367 33.901205 10.887390 -17.285233 -3.422067 -7.125000 0.000000 0.000000 -10.529978 13.460562 7.927334 -13.023811 -7.107153 -1.300945 91.440912 15.760860 38.012506 -42.873072 54.455120 -21.423555 0.546138 -0.668243 -20.644321 -19.705631 -33.096306 10.957605 7.125000 0.000000 0.000000 14.840444 -63.169431 -6.620095
-0.511643 17.761220 -6.888827 -1.072533 -9.176983 22.021237 -4.057502 -5.954916 -6.456025 -11.944241 3.944543 -44.476502 -2.860384 2.226035 3.985088 0.994911 1.753159 11.210124 0.055685 -1.285721 -3.539121 3.676143 2.030454 0.930752 15.264010 -4.675575 -11.838413 0.157115 -7.504314 21.793071 -4.431323 19.734417 -1.560748 -0.411431 4.104418 -11.372444 1.463225 4.023015 -9.713039 0.491466 4.240805 -8.560743 -0.544112 2.754350 -0.364101 -1.218814 -0.576845 -7.861352 2.127111 -0.834258 9.490333 -1.038737 -0.253901 2.791313 13.020536 8.402397 0.802348 -102.056394 31.532123 -7.046233 2.469419 -12.538196 -0.073427 -1.370471 -0.066049 34.426123 10.853513 -17.380069 -3.434552 -7.125000 0.000000 0.000000 -10.543256 13.370737 7.957987 -13.034153 -7.112371 -1.302029 91.370145 15.816185 37.988935 -43.416019 54.717006 -21.819049 0.558559 -0.664722 -20.456252 -19.813538 -32.664913 10.898388 7.125000 0.000000 0.000000 14.363818 -62.778536 -6.275023
-0.508175 17.746837 -6.736388 -1.098387 -9.368045 22.059029 -4.091523 -5.938767 -6.451791 -11.760860 3.801917 -44.202975 -2.872390 2.054316 3.530838 1.019106 1.946169 12.284375 0.130781 -2.288976 -6.306376 3.675555 1.978559 0.974240 15.068292 -4.475975 -11.334087 0.153121 -7.493458 21.793528 -4.413440 19.708913 -1.478753 -0.493263 4.499523 -12.487054 1.414272 4.099657 -9.886600 0.452493 4.337914 -8.546905 -0.588432 2.797953 -0.281898 -1.192317 -0.557020 -7.799332 2.176122 -0.816976 9.491365 -1.016946 -0.241951 2.766066 13.007168 8.410469 0.799291 -101.990014 31.956708 -7.845334 2.403006 -12.412894 -0.048765 -1.392207 -0.039840 35.097714 10.842352 -17.651114 -3.491665 -7.125000 0.000000 0.000000 -10.534646 13.104972 8.011234 -13.046232 -7.122411 -1.299641 91.321297 15.821122 37.937925 -43.989445 54.994294 -22.236681 0.573041 -0.662819 -20.274357 -19.908025 -32.084924 10.785685 7.125000 0.000000 0.000000 13.790872 -62.236695 -5.840378
-0.505949 17.735274 -6.582765 -1.199035 -9.428508 22.054403 -4.074188 -5.926790 -6.453039 -11.420980 3.602056 -44.000090 -2.863596 2.118493 3.706654 1.149434 1.641714 12.874287 0.067953 -1.206378 -3.323562 3.663400 1.927173 1.020493 15.037080 -4.290708 -10.779128 0.154431 -7.477409 21.777713 -4.384585 19.655147 -1.449336 -0.556929 4.774921 -13.268845 1.460543 4.154885 -9.967108 0.430229 4.397599 -8.544198 -0.652703 2.824080 -0.240717 -1.197531 -0.581243 -7.841382 2.215613 -0.849805 9.553210 -0.991913 -0.255682 2.807156 12.993681 8.416839 0.789920 -101.917285 32.346235 -8.797355 2.327146 -12.244753 -0.022965 -1.410283 -0.008064 36.002824 10.821761 -17.873135 -3.535449 -7.125000 0.000000 0.000000 -10.534784 12.887685 8.060210 -13.051082 -7.124728 -1.300814 91.238776 15.791315 37.845086 -44.533992 55.244717 -22.638566 0.583130 -0.657759 -20.273781 -20.022199 -32.127457 10.869628 7.125000 0.000000 0.000000 13.675908 -62.308362 -5.812251
